<?xml version="1.0" encoding="UTF-8"?>
<svg version="1.1" xmlns="http://www.w3.org/2000/svg" width="128" height="128">
<path d="M0 0 C42.24 0 84.48 0 128 0 C128 42.24 128 84.48 128 128 C85.76 128 43.52 128 0 128 C0 85.76 0 43.52 0 0 Z " fill="#0E141E" transform="translate(0,0)"/>
<path d="M0 0 C5.28 0 10.56 0 16 0 C16 5.28 16 10.56 16 16 C18.64 16 21.28 16 24 16 C24 10.72 24 5.44 24 0 C29.28 0 34.56 0 40 0 C40 15.84 40 31.68 40 48 C34.72 48 29.44 48 24 48 C24 42.72 24 37.44 24 32 C21.36 32 18.72 32 16 32 C16 37.28 16 42.56 16 48 C10.72 48 5.44 48 0 48 C0 32.16 0 16.32 0 0 Z " fill="#FFFFFF" transform="translate(24,40)"/>
<path d="M0 0 C10.56 0 21.12 0 32 0 C32 15.84 32 31.68 32 48 C21.44 48 10.88 48 0 48 C0 32.16 0 16.32 0 0 Z " fill="#00EA64" transform="translate(72,40)"/>
</svg>
