<?xml version="1.0" encoding="UTF-8"?>
<svg version="1.1" xmlns="http://www.w3.org/2000/svg" width="591" height="120">
<path d="M0 0 C27 0 27 0 34.6875 7.375 C37.57421875 11.8359375 37.57421875 11.8359375 38.83740234 14.02636719 C40.32965566 16.55962544 42.10644615 18.75550236 44 21 C44.61230469 21.76828125 45.22460938 22.5365625 45.85546875 23.328125 C48.09863729 26.12289236 50.3605123 28.90175056 52.62475586 31.67944336 C57.28155633 37.39249483 61.90627474 43.12423268 66.4375 48.9375 C71.11719805 54.93839292 75.94358482 60.80963399 80.79736328 66.67016602 C85.00261087 71.75887383 89.11137956 76.91349234 93.17236328 82.11767578 C97.36318136 87.48334511 101.67570807 92.74072604 106 98 C110.29 103.28 114.58 108.56 119 114 C119.33 76.38 119.66 38.76 120 0 C154.32 0 188.64 0 224 0 C224 6.6 224 13.2 224 20 C196.94 20 169.88 20 142 20 C142 29.57 142 39.14 142 49 C163.78 49 185.56 49 208 49 C208 55.6 208 62.2 208 69 C186.22 69 164.44 69 142 69 C142 79.23 142 89.46 142 100 C169.06 100 196.12 100 224 100 C224 106.6 224 113.2 224 120 C211.03677781 120.02278986 198.0735694 120.04105122 185.11033154 120.05181217 C179.08795095 120.05698253 173.06558504 120.06397083 167.04321289 120.07543945 C152.61182012 120.10185196 138.18134962 120.08955512 123.75012207 120.0122261 C121.21757458 120.00096726 118.68515675 119.99711356 116.15258789 119.99630737 C112.29230271 119.99266618 108.43398915 119.94081337 104.57421875 119.875 C103.54370895 119.87842911 102.51319916 119.88185822 101.45146179 119.88539124 C96.74610894 119.75598895 93.84635625 119.38745452 90.2956543 116.15454102 C88.3312638 113.95183439 86.64302459 111.73921954 85.3203125 109.08984375 C82.87906869 104.60634355 79.78505996 100.88832245 76.5 97 C75.39138789 95.64710094 74.28588747 94.29164576 73.18359375 92.93359375 C72.64718262 92.27343262 72.11077148 91.61327148 71.55810547 90.93310547 C69.19462738 88.00079279 66.87752648 85.03310919 64.5625 82.0625 C60.46061928 76.80244119 56.25416184 71.637546 52 66.5 C47.72788556 61.33981305 43.50030212 56.15341148 39.375 50.875 C33.63958553 43.53900474 27.81710868 36.27138585 22 29 C21.67 58.7 21.34 88.4 21 119 C14.07 119 7.14 119 0 119 C0 79.73 0 40.46 0 0 Z " fill="#000000" transform="translate(0,0)"/>
<path d="M0 0 C26.09843222 -2.24734283 26.09843222 -2.24734283 31.921875 2.40234375 C34.35549193 5.03016557 36.16423298 8.00043383 37.89892578 11.12255859 C39.77094967 14.31454612 42.16253585 17.07942988 44.5 19.9375 C45.40579773 21.09235131 46.3081306 22.24992839 47.20703125 23.41015625 C50.18611185 27.24313375 53.18613306 31.05946355 56.1875 34.875 C57.11856517 36.05983644 58.04956206 37.24472654 58.98046875 38.4296875 C59.64691406 39.27789062 60.31335938 40.12609375 61 41 C65.05431761 37.1027685 68.60627998 32.9450022 72.125 28.5625 C72.68832031 27.86527832 73.25164062 27.16805664 73.83203125 26.44970703 C78.03632347 21.23331412 82.19322826 15.98004233 86.30908203 10.69360352 C87.53285854 9.12395639 88.76631763 7.56187351 90 6 C90.63292969 4.88625 91.26585937 3.7725 91.91796875 2.625 C93.87916472 0.28768426 94.94230005 0.00898965 98.01806641 -0.47021484 C101.80070149 -0.59197018 105.53089715 -0.52196812 109.3125 -0.375 C110.62541016 -0.34792969 111.93832031 -0.32085938 113.29101562 -0.29296875 C116.52900979 -0.2223216 119.76366958 -0.12370566 123 0 C121.2491945 3.00758776 119.46749776 5.81415167 117.25 8.49609375 C116.46931152 9.44705933 116.46931152 9.44705933 115.67285156 10.41723633 C115.12081055 11.08392334 114.56876953 11.75061035 114 12.4375 C109.69226931 17.68581223 105.42668611 22.95922998 101.25 28.3125 C98.02826842 32.43848618 94.76955409 36.52435389 91.4375 40.5625 C86.47087746 46.59082809 81.73149351 52.78682794 77 59 C78.3314565 61.878418 79.83298322 64.19196251 81.87109375 66.6171875 C82.43997314 67.29958496 83.00885254 67.98198242 83.5949707 68.68505859 C84.20300537 69.40773926 84.81104004 70.13041992 85.4375 70.875 C89.97198326 76.31824524 94.45883877 81.78584031 98.8125 87.375 C102.01256423 91.48119011 105.24819287 95.54708944 108.5625 99.5625 C111.95083 103.68742348 115.28204213 107.85158076 118.5625 112.0625 C119.22584351 112.90373413 119.22584351 112.90373413 119.90258789 113.76196289 C123 117.76707769 123 117.76707769 123 120 C99.32067952 122.19588114 99.32067952 122.19588114 92.80371094 118.88378906 C89.36500298 115.89546056 87.32073054 112.07253195 85.20898438 108.08789062 C83.01848272 104.30494028 80.12534692 101.08022046 77.3125 97.75 C76.20176017 96.39280325 75.09360137 95.03348926 73.98828125 93.671875 C73.47088379 93.03701172 72.95348633 92.40214844 72.42041016 91.74804688 C69.97505811 88.73864148 67.5612739 85.70425104 65.14453125 82.671875 C62.90129084 79.8770181 60.63935364 77.09806375 58.375 74.3203125 C53.70005625 68.5848491 49.05469359 62.83154637 44.5 57 C38.4407773 49.24569677 32.22267323 41.62332184 26 34 C19.56411747 26.11547803 13.13584 18.22528887 6.8125 10.25 C6.12583252 9.39124268 6.12583252 9.39124268 5.42529297 8.51513672 C3.26672838 5.77722425 1.49551189 3.14196634 0 0 Z " fill="#000000" transform="translate(248,0)"/>
<path d="M0 0 C34.32 0 68.64 0 104 0 C104 6.6 104 13.2 104 20 C90.47 20 76.94 20 63 20 C63 53 63 86 63 120 C56.4 120 49.8 120 43 120 C41.06775535 118.06775535 41.87981562 115.16389611 41.87557983 112.59291077 C41.88097275 111.20971901 41.88097275 111.20971901 41.88647461 109.79858398 C41.88632858 108.83283447 41.88618256 107.86708496 41.8860321 106.87207031 C41.88673166 103.66338901 41.89452603 100.45476497 41.90234375 97.24609375 C41.90420778 95.02791882 41.90563175 92.80974348 41.90663147 90.59156799 C41.91045784 84.74059929 41.92028914 78.88965523 41.93133545 73.03869629 C41.94154701 67.07332696 41.94612854 61.10795367 41.95117188 55.14257812 C41.96191131 43.42837282 41.97950907 31.71419231 42 20 C28.14 20 14.28 20 0 20 C0 13.4 0 6.8 0 0 Z " fill="#000000" transform="translate(392,0)"/>
<path d="M0 0 C3.0381839 1.32564953 4.78945198 2.62904425 6.796875 5.2578125 C7.28027344 5.88300781 7.76367188 6.50820312 8.26171875 7.15234375 C8.99841797 8.12880859 8.99841797 8.12880859 9.75 9.125 C10.25660156 9.78371094 10.76320313 10.44242188 11.28515625 11.12109375 C12.53030858 12.74214112 13.76608569 14.37038213 15 16 C13.32196715 19.8622879 10.79651016 22.98666666 8.1875 26.25 C7.7126416 26.84973633 7.2377832 27.44947266 6.74853516 28.06738281 C2.27147576 33.70387466 -2.27599787 39.28417861 -6.84692383 44.84472656 C-7.37439209 45.48893555 -7.90186035 46.13314453 -8.4453125 46.796875 C-8.91469238 47.36760742 -9.38407227 47.93833984 -9.86767578 48.52636719 C-11.08855061 50.01847562 -11.08855061 50.01847562 -12 52 C-21.24 52 -30.48 52 -40 52 C-38.17242442 47.43106104 -36.23398699 44.63412787 -33.0625 41.0625 C-29.12778488 36.52518838 -25.3090883 31.93075523 -21.625 27.1875 C-16.9409011 21.16655057 -12.15587904 15.23397611 -7.32666016 9.32885742 C-4.82194076 6.26214694 -2.33750226 3.19783296 0 0 Z " fill="#000000" transform="translate(288,68)"/>
<path d="M0 0 C3.71569504 2.69037353 5.3958573 5.04915101 6.40625 9.51171875 C6.48875 10.39859375 6.57125 11.28546875 6.65625 12.19921875 C3.27704427 12.48941772 0.02465743 12.65513377 -3.34375 12.19921875 C-5.34375 9.69921875 -5.34375 9.69921875 -7.34375 7.19921875 C-10.72059345 6.62903043 -13.96554875 6.64010879 -17.34375 7.19921875 C-19.63103734 9.03805756 -19.63103734 9.03805756 -19.46875 11.82421875 C-19.4275 12.60796875 -19.38625 13.39171875 -19.34375 14.19921875 C-14.49405005 16.45043749 -9.67017906 18.44916771 -4.59375 20.13671875 C0.03133998 21.76910345 2.58157016 23.40711361 5.65625 27.19921875 C5.98625 27.52921875 6.31625 27.85921875 6.65625 28.19921875 C7.20396366 33.46984034 7.29118646 37.8823135 4.96875 42.69921875 C0.84913311 47.15285863 -3.10706596 48.95877936 -9.078125 49.40234375 C-16.03517908 49.51048449 -22.33221891 49.5087319 -27.90625 44.91015625 C-31.28955823 41.31539125 -32.05448865 38.02024126 -32.34375 33.19921875 C-28.96528287 32.91398231 -25.71093931 32.74228191 -22.34375 33.19921875 C-20.34375 35.63671875 -20.34375 35.63671875 -19.34375 38.19921875 C-17.00437093 39.36890828 -15.57005632 39.33286096 -12.96875 39.32421875 C-12.19789063 39.32679687 -11.42703125 39.329375 -10.6328125 39.33203125 C-8.4109311 39.20311663 -6.47756492 38.81305592 -4.34375 38.19921875 C-4.34375 35.88921875 -4.34375 33.57921875 -4.34375 31.19921875 C-5.98897807 30.5934058 -7.63497324 29.98967608 -9.28125 29.38671875 C-10.78365234 28.83564453 -10.78365234 28.83564453 -12.31640625 28.2734375 C-14.93564919 27.34402871 -17.56145038 26.51030009 -20.21875 25.69921875 C-24.84308514 24.16053121 -28.07201294 22.2224368 -30.71875 18.01171875 C-31.98306571 12.32229808 -31.32021393 7.79706882 -28.28125 2.82421875 C-20.48938234 -4.13872682 -9.11659695 -5.32424207 0 0 Z " fill="#000000" transform="translate(584.34375,69.80078125)"/>
<path d="M0 0 C3.3 0 6.6 0 10 0 C10.09940554 5.40766124 10.17172051 10.81478228 10.21972656 16.22314453 C10.23975373 18.06015293 10.26698382 19.89709829 10.30175781 21.73388672 C10.35067065 24.38525002 10.37305763 27.03576541 10.390625 29.6875 C10.41127014 30.49928711 10.43191528 31.31107422 10.45318604 32.14746094 C10.45537272 37.79434743 9.37410262 42.3724075 6 47 C1.18572508 50.75360651 -3.64933105 51.59209264 -9.671875 51.32421875 C-13.99390999 50.72232462 -16.8590996 48.83254894 -20.3125 46.3125 C-22.76861892 42.94670741 -22.72473971 40.12890433 -23 36 C-19.6219307 35.71479715 -16.36669939 35.54164871 -13 36 C-11.125 38.4375 -11.125 38.4375 -10 41 C-7.47408096 42.22221889 -6.46421227 42.15915849 -3.8125 41.25 C-1.68217062 40.04890402 -1.68217062 40.04890402 -1 37 C-0.8460737 34.19839498 -0.74261955 31.41701575 -0.68359375 28.61328125 C-0.66281265 27.79627243 -0.64203156 26.97926361 -0.62062073 26.13749695 C-0.55526921 23.52924966 -0.49630727 20.92090225 -0.4375 18.3125 C-0.39430108 16.54360946 -0.35068635 14.77472903 -0.30664062 13.00585938 C-0.19960257 8.67067537 -0.09829456 4.33539071 0 0 Z " fill="#000000" transform="translate(535,68)"/>
<path d="M0 0 C1.8125 1.125 1.8125 1.125 3 3 C3.4375 6 3.4375 6 3 9 C1.375 10.9375 1.375 10.9375 -1 12 C-4.1875 11.8125 -4.1875 11.8125 -7 11 C-8.52150158 7.95699684 -8.23899393 5.345915 -8 2 C-4.76746204 -0.15502531 -3.74849077 -0.46856135 0 0 Z " fill="#000000" transform="translate(503,107)"/>
</svg>
