<svg version="1.1" id="Layer_1" xmlns="http://www.w3.org/2000/svg" xmlns:xlink="http://www.w3.org/1999/xlink" x="0px" y="0px"
	 width="100%" viewBox="0 0 600 600" enable-background="new 0 0 600 600" xml:space="preserve">
<path fill="#FFFFFF" opacity="1.000000" stroke="none" 
	d="
M411.000000,601.000000 
	C275.500000,601.000000 140.499985,600.981934 5.500078,601.094177 
	C1.750555,601.097290 0.904367,600.249268 0.906386,596.499939 
	C1.012432,399.500000 1.012432,202.500000 0.906386,5.500051 
	C0.904367,1.750745 1.750745,0.904367 5.500051,0.906385 
	C202.500000,1.012433 399.500000,1.012433 596.499939,0.906386 
	C600.249268,0.904367 601.095703,1.750745 601.093628,5.500051 
	C600.987610,202.500000 600.987549,399.500000 601.093628,596.499939 
	C601.095642,600.249268 600.250305,601.104431 596.499817,601.096130 
	C534.833374,600.960815 473.166656,601.000000 411.000000,601.000000 
z"/>
<path fill="#010101" opacity="1.000000" stroke="none" 
	d="
M526.533936,63.664848 
	C530.133240,80.594559 525.498779,94.514732 513.591309,106.415649 
	C377.801086,242.130981 242.053329,377.888824 106.323250,513.664307 
	C93.675484,526.316284 78.765419,531.068726 61.581238,525.837769 
	C45.029598,520.799316 34.963093,509.136810 31.682383,492.169098 
	C29.093103,478.777496 32.777592,466.774963 41.501629,456.324738 
	C42.460659,455.176025 43.529739,454.115051 44.589569,453.055145 
	C180.692169,316.945099 316.800995,180.841293 452.900665,44.728306 
	C464.059998,33.567848 477.369690,28.638706 492.936340,31.872864 
	C510.286621,35.477592 521.402161,46.241169 526.533936,63.664848 
z"/>
<path fill="#010101" opacity="1.000000" stroke="none" 
	d="
M477.877930,422.878082 
	C432.746460,468.009186 387.911743,512.937134 342.962128,557.749878 
	C323.046661,577.604736 291.526245,574.853943 276.052917,552.136230 
	C264.574738,535.284119 266.408112,512.713440 280.646667,497.858948 
	C287.561859,490.644562 294.749451,483.691193 301.817352,476.623260 
	C366.724213,411.716064 431.600128,346.777863 496.557220,281.920929 
	C518.022278,260.488983 552.754761,265.667145 566.299133,292.138397 
	C575.062744,309.266266 571.801636,328.881012 557.633667,343.096283 
	C531.171692,369.646667 504.634094,396.121704 477.877930,422.878082 
z"/>
</svg>