<svg version="1.1" id="Layer_1" xmlns="http://www.w3.org/2000/svg" xmlns:xlink="http://www.w3.org/1999/xlink" x="0px" y="0px"
	 width="100%" viewBox="0 0 600 600" enable-background="new 0 0 600 600" xml:space="preserve">
<path fill="#000000" opacity="1.000000" stroke="none" 
	d="
M411.000000,601.000000 
	C274.000000,601.000000 137.500000,601.000000 1.000000,601.000000 
	C1.000000,401.000000 1.000000,201.000000 1.000000,1.000000 
	C201.000000,1.000000 401.000000,1.000000 601.000000,1.000000 
	C601.000000,201.000000 601.000000,401.000000 601.000000,601.000000 
	C537.833313,601.000000 474.666656,601.000000 411.000000,601.000000 
M526.400391,63.269482 
	C521.798828,47.205284 511.464081,36.608692 495.364166,32.411434 
	C478.781128,28.088207 464.566742,33.040283 452.533600,45.077190 
	C317.038422,180.614975 181.513641,316.123169 45.999794,451.642273 
	C44.586208,453.055908 43.130245,454.439056 41.833317,455.955536 
	C32.856495,466.451874 29.065945,478.585571 31.685177,492.172089 
	C34.956577,509.141418 45.034065,520.795105 61.584007,525.839600 
	C78.553535,531.011963 93.445709,526.515625 105.958504,514.002502 
	C241.944733,378.013062 377.926636,242.019257 513.932800,106.049759 
	C525.705444,94.280266 530.087646,80.381454 526.400391,63.269482 
M478.128021,422.628082 
	C504.634308,396.121521 531.172119,369.646423 557.634155,343.095764 
	C571.802063,328.880371 575.062683,309.265808 566.298767,292.137848 
	C552.754211,265.666840 518.022095,260.489105 496.556793,281.921295 
	C431.599762,346.778168 366.723938,411.716339 301.817139,476.623535 
	C294.749268,483.691467 287.561615,490.644775 280.646454,497.859192 
	C266.407959,512.713745 264.574707,535.284424 276.052979,552.136475 
	C291.526398,574.854126 323.046814,577.604553 342.962280,557.749695 
	C387.911865,512.937012 432.746582,468.009094 478.128021,422.628082 
z"/>
<path fill="#FEFEFE" opacity="1.000000" stroke="none" 
	d="
M526.533936,63.664841 
	C530.087646,80.381454 525.705444,94.280266 513.932800,106.049759 
	C377.926636,242.019257 241.944733,378.013062 105.958504,514.002502 
	C93.445709,526.515625 78.553535,531.011963 61.584007,525.839600 
	C45.034065,520.795105 34.956577,509.141418 31.685177,492.172089 
	C29.065945,478.585571 32.856495,466.451874 41.833317,455.955536 
	C43.130245,454.439056 44.586208,453.055908 45.999794,451.642273 
	C181.513641,316.123169 317.038422,180.614975 452.533600,45.077190 
	C464.566742,33.040283 478.781128,28.088207 495.364166,32.411434 
	C511.464081,36.608692 521.798828,47.205284 526.533936,63.664841 
z"/>
<path fill="#FEFEFE" opacity="1.000000" stroke="none" 
	d="
M477.877991,422.878052 
	C432.746582,468.009094 387.911865,512.937012 342.962280,557.749695 
	C323.046814,577.604553 291.526398,574.854126 276.052979,552.136475 
	C264.574707,535.284424 266.407959,512.713745 280.646454,497.859192 
	C287.561615,490.644775 294.749268,483.691467 301.817139,476.623535 
	C366.723938,411.716339 431.599762,346.778168 496.556793,281.921295 
	C518.022095,260.489105 552.754211,265.666840 566.298767,292.137848 
	C575.062683,309.265808 571.802063,328.880371 557.634155,343.095764 
	C531.172119,369.646423 504.634308,396.121521 477.877991,422.878052 
z"/>
</svg>