<?xml version="1.0" encoding="UTF-8"?>
<svg version="1.1" xmlns="http://www.w3.org/2000/svg" width="64" height="64">
<path d="M0 0 C17.5999225 -1.45731842 17.5999225 -1.45731842 22.60546875 1.58203125 C24.40735296 3.95743679 25.67710371 6.32812214 27 9 C28.45930959 11.20079663 29.93897281 13.388217 31.4375 15.5625 C32.62848735 17.37271038 33.81724765 19.18439834 35 21 C41.87119121 15.89065269 47.06940837 9.12221352 52.0078125 2.17578125 C54 0 54 0 56.140625 -0.48828125 C56.83671875 -0.43027344 57.5328125 -0.37226562 58.25 -0.3125 C59.4875 -0.209375 60.725 -0.10625 62 0 C58.03191287 5.5767711 53.71569723 10.62165345 49.04760742 15.61035156 C45.89993922 18.97943262 42.9230616 22.4373535 40 26 C41.3409342 29.68439002 42.99616154 32.69743868 45.23046875 35.9140625 C45.86919922 36.84089844 46.50792969 37.76773438 47.16601562 38.72265625 C47.83310547 39.68042969 48.50019531 40.63820312 49.1875 41.625 C54.28963821 48.98629394 59.24545295 56.40861323 64 64 C46.61105771 65.95578587 46.61105771 65.95578587 40.94921875 61.71484375 C38.67456278 58.58365658 36.83403409 55.40606332 35 52 C33.50844015 49.89560911 31.98898515 47.81060808 30.4375 45.75 C29.29074029 44.16733748 28.14454028 42.58426829 27 41 C26.47792969 41.65484375 25.95585937 42.3096875 25.41796875 42.984375 C23.4233402 45.45757467 21.40912921 47.91246845 19.37353516 50.35205078 C18.44684369 51.46388288 17.52473415 52.57954781 16.60693359 53.69873047 C15.21715321 55.38063951 13.80033131 57.03567701 12.375 58.6875 C11.72954224 59.48075684 11.72954224 59.48075684 11.07104492 60.29003906 C8.41459586 63.30284714 7.23754569 63.97943851 3.1640625 64.33203125 C1.59785156 64.16767578 1.59785156 64.16767578 0 64 C3.35905275 59.23451459 6.98315533 54.84888888 10.9375 50.5625 C15.66325427 45.40505739 15.66325427 45.40505739 20.25 40.125 C20.83265625 39.44695313 21.4153125 38.76890625 22.015625 38.0703125 C23.24472879 36.02624932 23.24472879 36.02624932 22.51953125 33.7421875 C20.42272114 29.95822684 17.97385346 26.50026212 15.4375 23 C14.35763725 21.48989478 13.27821513 19.97947438 12.19921875 18.46875 C11.66216309 17.71980469 11.12510742 16.97085937 10.57177734 16.19921875 C8.2732488 12.98313532 6.00577138 9.74616639 3.75 6.5 C3.02296875 5.4584375 2.2959375 4.416875 1.546875 3.34375 C0 1 0 1 0 0 Z M10 5 C13.35375319 11.59185973 17.37674187 17.37605925 21.78295898 23.28417969 C24.5939937 27.06099456 27.29636674 30.87064024 29.875 34.8125 C33.41746936 40.21125289 37.15455831 45.45475592 40.9375 50.6875 C41.80834229 51.89273315 41.80834229 51.89273315 42.69677734 53.12231445 C45.1733972 56.70629956 45.1733972 56.70629956 48 60 C50.33297433 60.04092937 52.66705225 60.04241723 55 60 C50.3844169 52.3800919 45.29812112 45.18202914 40.05541992 37.98681641 C36.33633971 32.87421351 32.69645442 27.7166961 29.125 22.5 C28.67189453 21.84427002 28.21878906 21.18854004 27.75195312 20.51293945 C25.76940787 17.63539361 23.84764151 14.75383648 22.0078125 11.78125 C19.74688869 8.19751493 19.74688869 8.19751493 17 5 C13.19904988 4.16046733 13.19904988 4.16046733 10 5 Z " fill="#E5E5E5" transform="translate(0,0)"/>
</svg>
